<?xml version="1.0" encoding="utf-8"?>
<!-- Generator: Adobe Illustrator 23.0.2, SVG Export Plug-In . SVG Version: 6.00 Build 0)  -->
<svg version="1.1" id="Layer_1" xmlns="http://www.w3.org/2000/svg" xmlns:xlink="http://www.w3.org/1999/xlink" x="0px" y="0px"
	 viewBox="0 0 162.7 162.7" style="enable-background:new 0 0 162.7 162.7;" xml:space="preserve">
<style type="text/css">
	.st0{fill:#FFFFFF;}
</style>
<g>
	<path class="st0" d="M104.25,35.77c-8.63,0-17.16,3.9-22.9,10.44c-5.74-6.55-14.27-10.44-22.9-10.44
		c-15.88,0-28.31,12.44-28.31,28.31c0,19.34,17.34,35.08,43.58,58.91l1.89,1.72c1.64,1.48,3.69,2.23,5.74,2.23
		c2.05,0,4.1-0.74,5.74-2.23l1.9-1.72c26.24-23.82,43.57-39.56,43.57-58.9C132.56,48.21,120.13,35.77,104.25,35.77z M81.35,84.71
		c-4.95,0-8.97-4.02-8.97-8.97s4.02-8.97,8.97-8.97c4.95,0,8.97,4.02,8.97,8.97S86.3,84.71,81.35,84.71z M64.98,75.38v0.02
		c0,0.02,0,0.03,0,0.05c0,0.22,0.01,0.45,0.02,0.73c0,0.05,0.01,0.09,0.01,0.14c0.13,2.49,0.78,4.82,1.88,6.74
		c2.85,5.37,8.39,8.7,14.46,8.7c6.07,0,11.61-3.34,14.46-8.7c1.1-1.92,1.75-4.26,1.88-6.74c0-0.05,0.01-0.1,0.01-0.15
		c0.01-0.27,0.02-0.5,0.02-0.74l0-0.06c0-7.54-4.56-13.97-10.56-21.56l1.06-1.24c3.98-4.66,9.98-7.44,16.03-7.44
		c5.18,0,9.97,1.94,13.49,5.46c3.52,3.52,5.46,8.31,5.46,13.49c0,6.79-3.05,13.54-9.88,21.9c-7.17,8.78-18.04,18.65-30.64,30.08
		l-0.03,0.03c-0.74,0.67-1.86,0.67-2.61-0.01l-0.03-0.02c-12.59-11.43-23.46-21.3-30.64-30.08c-6.83-8.36-9.88-15.12-9.88-21.9
		c0-5.18,1.94-9.97,5.46-13.49c3.52-3.52,8.31-5.46,13.49-5.46c6.05,0,12.04,2.78,16.03,7.44l1.06,1.24
		C69.55,61.41,64.98,67.85,64.98,75.38z"/>
</g>
</svg>
